<svg id="visual" viewBox="0 0 900 600" width="900" height="600" xmlns="http://www.w3.org/2000/svg" xmlns:xlink="http://www.w3.org/1999/xlink" version="1.1"><rect x="0" y="0" width="900" height="600" fill="#a1c3d1"></rect><path d="M0 247L15 236.8C30 226.7 60 206.3 90 207.2C120 208 150 230 180 238.3C210 246.7 240 241.3 270 252.2C300 263 330 290 360 292C390 294 420 271 450 269.2C480 267.3 510 286.7 540 283.5C570 280.3 600 254.7 630 242.8C660 231 690 233 720 242.8C750 252.7 780 270.3 810 268.3C840 266.3 870 244.7 885 233.8L900 223L900 601L885 601C870 601 840 601 810 601C780 601 750 601 720 601C690 601 660 601 630 601C600 601 570 601 540 601C510 601 480 601 450 601C420 601 390 601 360 601C330 601 300 601 270 601C240 601 210 601 180 601C150 601 120 601 90 601C60 601 30 601 15 601L0 601Z" fill="#b39bc8"></path><path d="M0 340L15 340.5C30 341 60 342 90 331.2C120 320.3 150 297.7 180 301.7C210 305.7 240 336.3 270 340.5C300 344.7 330 322.3 360 317C390 311.7 420 323.3 450 328C480 332.7 510 330.3 540 326.8C570 323.3 600 318.7 630 323.8C660 329 690 344 720 340.2C750 336.3 780 313.7 810 307.5C840 301.3 870 311.7 885 316.8L900 322L900 601L885 601C870 601 840 601 810 601C780 601 750 601 720 601C690 601 660 601 630 601C600 601 570 601 540 601C510 601 480 601 450 601C420 601 390 601 360 601C330 601 300 601 270 601C240 601 210 601 180 601C150 601 120 601 90 601C60 601 30 601 15 601L0 601Z" fill="#c185c4"></path><path d="M0 369L15 379.8C30 390.7 60 412.3 90 411.5C120 410.7 150 387.3 180 386.7C210 386 240 408 270 422.2C300 436.3 330 442.7 360 440.3C390 438 420 427 450 420.3C480 413.7 510 411.3 540 413.3C570 415.3 600 421.7 630 421.7C660 421.7 690 415.3 720 414.3C750 413.3 780 417.7 810 413.3C840 409 870 396 885 389.5L900 383L900 601L885 601C870 601 840 601 810 601C780 601 750 601 720 601C690 601 660 601 630 601C600 601 570 601 540 601C510 601 480 601 450 601C420 601 390 601 360 601C330 601 300 601 270 601C240 601 210 601 180 601C150 601 120 601 90 601C60 601 30 601 15 601L0 601Z" fill="#d469b4"></path><path d="M0 522L15 515C30 508 60 494 90 487.2C120 480.3 150 480.7 180 478.2C210 475.7 240 470.3 270 468C300 465.7 330 466.3 360 471.5C390 476.7 420 486.3 450 491.7C480 497 510 498 540 493.3C570 488.7 600 478.3 630 475.3C660 472.3 690 476.7 720 474.7C750 472.7 780 464.3 810 463.2C840 462 870 468 885 471L900 474L900 601L885 601C870 601 840 601 810 601C780 601 750 601 720 601C690 601 660 601 630 601C600 601 570 601 540 601C510 601 480 601 450 601C420 601 390 601 360 601C330 601 300 601 270 601C240 601 210 601 180 601C150 601 120 601 90 601C60 601 30 601 15 601L0 601Z" fill="#e64398"></path></svg>