<svg id="visual" viewBox="0 0 900 600" width="900" height="600" xmlns="http://www.w3.org/2000/svg" xmlns:xlink="http://www.w3.org/1999/xlink" version="1.1"><rect x="0" y="0" width="900" height="600" fill="#e64398"></rect><path d="M0 281L21.5 263.3C43 245.7 86 210.3 128.8 201.3C171.7 192.3 214.3 209.7 257.2 209.3C300 209 343 191 385.8 201.8C428.7 212.7 471.3 252.3 514.2 258.2C557 264 600 236 642.8 228.2C685.7 220.3 728.3 232.7 771.2 235.2C814 237.7 857 230.3 878.5 226.7L900 223L900 601L878.5 601C857 601 814 601 771.2 601C728.3 601 685.7 601 642.8 601C600 601 557 601 514.2 601C471.3 601 428.7 601 385.8 601C343 601 300 601 257.2 601C214.3 601 171.7 601 128.8 601C86 601 43 601 21.5 601L0 601Z" fill="#f172a1"></path><path d="M0 356L21.5 337.3C43 318.7 86 281.3 128.8 269.2C171.7 257 214.3 270 257.2 284.3C300 298.7 343 314.3 385.8 314.5C428.7 314.7 471.3 299.3 514.2 278.7C557 258 600 232 642.8 241C685.7 250 728.3 294 771.2 304.7C814 315.3 857 292.7 878.5 281.3L900 270L900 601L878.5 601C857 601 814 601 771.2 601C728.3 601 685.7 601 642.8 601C600 601 557 601 514.2 601C471.3 601 428.7 601 385.8 601C343 601 300 601 257.2 601C214.3 601 171.7 601 128.8 601C86 601 43 601 21.5 601L0 601Z" fill="#9cb1e4"></path><path d="M0 393L21.5 376C43 359 86 325 128.8 314.8C171.7 304.7 214.3 318.3 257.2 322.8C300 327.3 343 322.7 385.8 318.3C428.7 314 471.3 310 514.2 325.5C557 341 600 376 642.8 380.2C685.7 384.3 728.3 357.7 771.2 352C814 346.3 857 361.7 878.5 369.3L900 377L900 601L878.5 601C857 601 814 601 771.2 601C728.3 601 685.7 601 642.8 601C600 601 557 601 514.2 601C471.3 601 428.7 601 385.8 601C343 601 300 601 257.2 601C214.3 601 171.7 601 128.8 601C86 601 43 601 21.5 601L0 601Z" fill="#a1c3d1"></path><path d="M0 469L21.5 459.3C43 449.7 86 430.3 128.8 419.2C171.7 408 214.3 405 257.2 416.5C300 428 343 454 385.8 459.2C428.7 464.3 471.3 448.7 514.2 447.5C557 446.3 600 459.7 642.8 467.3C685.7 475 728.3 477 771.2 467.2C814 457.3 857 435.7 878.5 424.8L900 414L900 601L878.5 601C857 601 814 601 771.2 601C728.3 601 685.7 601 642.8 601C600 601 557 601 514.2 601C471.3 601 428.7 601 385.8 601C343 601 300 601 257.2 601C214.3 601 171.7 601 128.8 601C86 601 43 601 21.5 601L0 601Z" fill="#9cb1e4"></path><path d="M0 505L21.5 496C43 487 86 469 128.8 468.3C171.7 467.7 214.3 484.3 257.2 485.2C300 486 343 471 385.8 478.2C428.7 485.3 471.3 514.7 514.2 522.2C557 529.7 600 515.3 642.8 502.3C685.7 489.3 728.3 477.7 771.2 473.7C814 469.7 857 473.3 878.5 475.2L900 477L900 601L878.5 601C857 601 814 601 771.2 601C728.3 601 685.7 601 642.8 601C600 601 557 601 514.2 601C471.3 601 428.7 601 385.8 601C343 601 300 601 257.2 601C214.3 601 171.7 601 128.8 601C86 601 43 601 21.5 601L0 601Z" fill="#f172a1"></path></svg>