<svg id="visual" viewBox="0 0 900 600" width="900" height="600" xmlns="http://www.w3.org/2000/svg" xmlns:xlink="http://www.w3.org/1999/xlink" version="1.1"><rect x="0" y="0" width="900" height="600" fill="#b39bc8"></rect><path d="M0 312L21.5 296.2C43 280.3 86 248.7 128.8 240.7C171.7 232.7 214.3 248.3 257.2 248.2C300 248 343 232 385.8 241.8C428.7 251.7 471.3 287.3 514.2 292.5C557 297.7 600 272.3 642.8 265.3C685.7 258.3 728.3 269.7 771.2 272C814 274.3 857 267.7 878.5 264.3L900 261L900 601L878.5 601C857 601 814 601 771.2 601C728.3 601 685.7 601 642.8 601C600 601 557 601 514.2 601C471.3 601 428.7 601 385.8 601C343 601 300 601 257.2 601C214.3 601 171.7 601 128.8 601C86 601 43 601 21.5 601L0 601Z" fill="#e64398"></path><path d="M0 380L21.5 363.2C43 346.3 86 312.7 128.8 301.7C171.7 290.7 214.3 302.3 257.2 315.3C300 328.3 343 342.7 385.8 343C428.7 343.3 471.3 329.7 514.2 311C557 292.3 600 268.7 642.8 276.8C685.7 285 728.3 325 771.2 334.5C814 344 857 323 878.5 312.5L900 302L900 601L878.5 601C857 601 814 601 771.2 601C728.3 601 685.7 601 642.8 601C600 601 557 601 514.2 601C471.3 601 428.7 601 385.8 601C343 601 300 601 257.2 601C214.3 601 171.7 601 128.8 601C86 601 43 601 21.5 601L0 601Z" fill="#88a8e5"></path><path d="M0 413L21.5 397.7C43 382.3 86 351.7 128.8 342.5C171.7 333.3 214.3 345.7 257.2 349.8C300 354 343 350 385.8 346.2C428.7 342.3 471.3 338.7 514.2 352.7C557 366.7 600 398.3 642.8 402.2C685.7 406 728.3 382 771.2 376.8C814 371.7 857 385.3 878.5 392.2L900 399L900 601L878.5 601C857 601 814 601 771.2 601C728.3 601 685.7 601 642.8 601C600 601 557 601 514.2 601C471.3 601 428.7 601 385.8 601C343 601 300 601 257.2 601C214.3 601 171.7 601 128.8 601C86 601 43 601 21.5 601L0 601Z" fill="#a1c3d1"></path><path d="M0 482L21.5 473.3C43 464.7 86 447.3 128.8 437.3C171.7 427.3 214.3 424.7 257.2 435C300 445.3 343 468.7 385.8 473.3C428.7 478 471.3 464 514.2 463C557 462 600 474 642.8 480.8C685.7 487.7 728.3 489.3 771.2 480.3C814 471.3 857 451.7 878.5 441.8L900 432L900 601L878.5 601C857 601 814 601 771.2 601C728.3 601 685.7 601 642.8 601C600 601 557 601 514.2 601C471.3 601 428.7 601 385.8 601C343 601 300 601 257.2 601C214.3 601 171.7 601 128.8 601C86 601 43 601 21.5 601L0 601Z" fill="#88a8e5"></path><path d="M0 514L21.5 506C43 498 86 482 128.8 481.3C171.7 480.7 214.3 495.3 257.2 496C300 496.7 343 483.3 385.8 490C428.7 496.7 471.3 523.3 514.2 530.2C557 537 600 524 642.8 512.3C685.7 500.7 728.3 490.3 771.2 486.7C814 483 857 486 878.5 487.5L900 489L900 601L878.5 601C857 601 814 601 771.2 601C728.3 601 685.7 601 642.8 601C600 601 557 601 514.2 601C471.3 601 428.7 601 385.8 601C343 601 300 601 257.2 601C214.3 601 171.7 601 128.8 601C86 601 43 601 21.5 601L0 601Z" fill="#e64398"></path></svg>