<svg id="visual" viewBox="0 0 900 600" width="900" height="600" xmlns="http://www.w3.org/2000/svg" xmlns:xlink="http://www.w3.org/1999/xlink" version="1.1"><rect x="0" y="0" width="900" height="600" fill="#a1c3d1"></rect><path d="M0 344L21.5 330C43 316 86 288 128.8 280.8C171.7 273.7 214.3 287.3 257.2 287C300 286.7 343 272.3 385.8 281.2C428.7 290 471.3 322 514.2 326.7C557 331.3 600 308.7 642.8 302.3C685.7 296 728.3 306 771.2 308C814 310 857 304 878.5 301L900 298L900 601L878.5 601C857 601 814 601 771.2 601C728.3 601 685.7 601 642.8 601C600 601 557 601 514.2 601C471.3 601 428.7 601 385.8 601C343 601 300 601 257.2 601C214.3 601 171.7 601 128.8 601C86 601 43 601 21.5 601L0 601Z" fill="#b39bc8"></path><path d="M0 404L21.5 389.2C43 374.3 86 344.7 128.8 335C171.7 325.3 214.3 335.7 257.2 347.2C300 358.7 343 371.3 385.8 371.5C428.7 371.7 471.3 359.3 514.2 342.7C557 326 600 305 642.8 312.3C685.7 319.7 728.3 355.3 771.2 363.8C814 372.3 857 353.7 878.5 344.3L900 335L900 601L878.5 601C857 601 814 601 771.2 601C728.3 601 685.7 601 642.8 601C600 601 557 601 514.2 601C471.3 601 428.7 601 385.8 601C343 601 300 601 257.2 601C214.3 601 171.7 601 128.8 601C86 601 43 601 21.5 601L0 601Z" fill="#d16db6"></path><path d="M0 434L21.5 420.3C43 406.7 86 379.3 128.8 371.2C171.7 363 214.3 374 257.2 377.7C300 381.3 343 377.7 385.8 374.2C428.7 370.7 471.3 367.3 514.2 379.7C557 392 600 420 642.8 423.5C685.7 427 728.3 406 771.2 401.5C814 397 857 409 878.5 415L900 421L900 601L878.5 601C857 601 814 601 771.2 601C728.3 601 685.7 601 642.8 601C600 601 557 601 514.2 601C471.3 601 428.7 601 385.8 601C343 601 300 601 257.2 601C214.3 601 171.7 601 128.8 601C86 601 43 601 21.5 601L0 601Z" fill="#e64398"></path><path d="M0 495L21.5 487.2C43 479.3 86 463.7 128.8 454.7C171.7 445.7 214.3 443.3 257.2 452.7C300 462 343 483 385.8 487.3C428.7 491.7 471.3 479.3 514.2 478.3C557 477.3 600 487.7 642.8 493.7C685.7 499.7 728.3 501.3 771.2 493.5C814 485.7 857 468.3 878.5 459.7L900 451L900 601L878.5 601C857 601 814 601 771.2 601C728.3 601 685.7 601 642.8 601C600 601 557 601 514.2 601C471.3 601 428.7 601 385.8 601C343 601 300 601 257.2 601C214.3 601 171.7 601 128.8 601C86 601 43 601 21.5 601L0 601Z" fill="#d16db6"></path><path d="M0 523L21.5 516C43 509 86 495 128.8 494.5C171.7 494 214.3 507 257.2 507.7C300 508.3 343 496.7 385.8 502.5C428.7 508.3 471.3 531.7 514.2 537.7C557 543.7 600 532.3 642.8 522C685.7 511.7 728.3 502.3 771.2 499.2C814 496 857 499 878.5 500.5L900 502L900 601L878.5 601C857 601 814 601 771.2 601C728.3 601 685.7 601 642.8 601C600 601 557 601 514.2 601C471.3 601 428.7 601 385.8 601C343 601 300 601 257.2 601C214.3 601 171.7 601 128.8 601C86 601 43 601 21.5 601L0 601Z" fill="#b39bc8"></path></svg>